<svg viewBox="0 0 959 593" xmlns="http://www.w3.org/2000/svg" class="map-svg" aria-label="United States Coverage Map">
  <g id="states">
    <path class="state" data-name="Washington"     d="M 75,63 L 207,63 L 215,80 L 212,125 L 190,140 L 148,145 L 120,150 L 92,135 L 78,115 Z"/>
    <path class="state" data-name="Oregon"         d="M 78,115 L 92,135 L 120,150 L 148,145 L 190,140 L 212,125 L 215,160 L 215,205 L 185,215 L 130,248 L 97,258 L 72,240 L 75,180 Z"/>
    <path class="state" data-name="California"     d="M 72,240 L 97,258 L 130,248 L 185,215 L 200,258 L 205,310 L 196,360 L 183,400 L 168,440 L 150,462 L 128,445 L 94,415 L 65,362 L 63,312 L 70,262 Z"/>
    <path class="state" data-name="Idaho"          d="M 215,63 L 280,65 L 283,110 L 276,160 L 265,200 L 250,215 L 215,215 L 215,160 L 212,125 L 215,80 Z"/>
    <path class="state" data-name="Nevada"         d="M 185,215 L 215,215 L 250,215 L 255,248 L 260,328 L 258,380 L 220,388 L 178,368 L 168,328 L 170,278 L 182,250 Z"/>
    <path class="state" data-name="Utah"           d="M 250,215 L 276,160 L 330,165 L 330,248 L 332,370 L 262,370 L 260,328 L 255,248 Z"/>
    <path class="state" data-name="Arizona"        d="M 178,368 L 220,388 L 258,380 L 262,370 L 332,370 L 334,418 L 290,420 L 260,420 L 222,418 L 188,398 Z"/>
    <path class="state" data-name="Montana"        d="M 280,65 L 480,65 L 482,110 L 462,152 L 428,160 L 385,168 L 330,165 L 276,160 L 283,110 Z"/>
    <path class="state" data-name="Wyoming"        d="M 330,165 L 385,168 L 460,165 L 462,248 L 330,248 Z"/>
    <path class="state" data-name="Colorado"       d="M 330,248 L 462,248 L 462,330 L 330,330 Z"/>
    <path class="state" data-name="New Mexico"     d="M 262,370 L 332,370 L 332,330 L 462,330 L 462,418 L 372,420 L 290,420 L 262,415 Z"/>
    <path class="state" data-name="North Dakota"   d="M 480,65 L 620,65 L 622,92 L 620,143 L 480,143 L 482,110 Z"/>
    <path class="state" data-name="South Dakota"   d="M 480,143 L 620,143 L 622,218 L 575,218 L 480,218 Z"/>
    <path class="state" data-name="Nebraska"       d="M 480,218 L 620,218 L 622,278 L 480,278 Z"/>
    <path class="state" data-name="Kansas"         d="M 480,278 L 620,278 L 622,340 L 480,340 Z"/>
    <path class="state" data-name="Oklahoma"       d="M 462,330 L 465,340 L 620,340 L 640,342 L 642,378 L 625,408 L 552,408 L 492,408 L 464,405 L 462,370 Z"/>
    <path class="state" data-name="Texas"          d="M 462,370 L 464,405 L 492,408 L 552,408 L 625,408 L 642,378 L 644,465 L 628,495 L 600,522 L 570,542 L 540,550 L 506,550 L 480,535 L 464,512 L 455,482 L 448,455 L 448,408 L 440,370 Z"/>
    <path class="state" data-name="Minnesota"      d="M 620,65 L 697,65 L 700,95 L 700,150 L 694,170 L 683,172 L 622,152 L 622,92 Z"/>
    <path class="state" data-name="Iowa"           d="M 622,168 L 683,172 L 690,238 L 622,238 Z"/>
    <path class="state" data-name="Missouri"       d="M 622,238 L 690,238 L 690,278 L 682,314 L 662,318 L 638,342 L 620,345 L 602,332 L 580,328 L 578,302 L 582,278 Z"/>
    <path class="state" data-name="Arkansas"       d="M 580,342 L 620,345 L 638,342 L 640,378 L 638,408 L 580,408 L 563,395 L 560,370 Z"/>
    <path class="state" data-name="Louisiana"      d="M 560,408 L 625,408 L 642,408 L 652,435 L 650,468 L 628,480 L 602,490 L 572,490 L 553,468 L 552,442 L 557,418 Z"/>
    <path class="state" data-name="Wisconsin"      d="M 660,98 L 700,95 L 700,150 L 694,170 L 750,172 L 752,110 L 735,98 L 718,95 Z"/>
    <path class="state" data-name="Michigan"       d="M 718,95 L 752,110 L 765,122 L 780,140 L 787,160 L 778,182 L 758,190 L 740,188 L 720,178 L 718,158 Z M 662,98 L 718,95 L 718,122 L 718,138 L 690,148 L 670,145 L 656,132 Z"/>
    <path class="state" data-name="Illinois"       d="M 656,178 L 694,178 L 714,192 L 712,255 L 707,290 L 688,292 L 670,280 L 660,258 L 656,228 Z"/>
    <path class="state" data-name="Indiana"        d="M 714,192 L 740,188 L 762,195 L 762,272 L 714,272 L 712,255 Z"/>
    <path class="state" data-name="Ohio"           d="M 762,190 L 808,192 L 835,212 L 832,262 L 820,278 L 800,280 L 762,275 Z"/>
    <path class="state" data-name="Kentucky"       d="M 690,292 L 714,292 L 762,292 L 800,280 L 820,278 L 832,298 L 832,322 L 800,332 L 762,332 L 718,332 L 690,330 L 672,318 Z"/>
    <path class="state" data-name="West Virginia"  d="M 820,252 L 832,248 L 850,252 L 856,272 L 852,292 L 832,298 L 820,285 L 820,262 Z"/>
    <path class="state" data-name="Virginia"       d="M 820,262 L 852,252 L 878,255 L 882,265 L 880,288 L 870,320 L 855,328 L 835,332 L 832,322 L 832,298 L 852,292 L 856,272 L 850,252 L 832,248 L 820,252 Z"/>
    <path class="state" data-name="Tennessee"      d="M 660,332 L 690,332 L 762,332 L 800,332 L 832,322 L 842,338 L 835,368 L 800,372 L 762,370 L 718,370 L 688,370 L 660,368 L 647,355 Z"/>
    <path class="state" data-name="Mississippi"    d="M 638,370 L 660,368 L 662,382 L 665,408 L 660,452 L 650,468 L 632,470 L 616,454 L 612,432 L 618,408 L 638,408 Z"/>
    <path class="state" data-name="Alabama"        d="M 660,368 L 690,365 L 712,368 L 714,462 L 700,470 L 680,470 L 660,455 L 657,435 L 652,412 L 652,388 L 660,382 Z"/>
    <path class="state" data-name="Georgia"        d="M 712,368 L 752,362 L 778,370 L 780,395 L 778,432 L 766,462 L 746,472 L 722,470 L 705,465 L 700,470 L 714,462 L 712,385 Z"/>
    <path class="state" data-name="Florida"        d="M 700,470 L 722,470 L 746,472 L 766,462 L 778,462 L 790,490 L 793,518 L 790,550 L 771,562 L 748,560 L 723,548 L 703,528 L 692,502 L 690,480 Z"/>
    <path class="state" data-name="South Carolina" d="M 778,370 L 814,358 L 824,372 L 822,402 L 807,422 L 787,430 L 772,422 L 764,405 L 765,390 Z"/>
    <path class="state" data-name="North Carolina" d="M 760,330 L 800,332 L 835,332 L 842,338 L 870,330 L 880,340 L 870,358 L 847,368 L 814,368 L 778,368 L 762,358 L 760,342 Z"/>
    <path class="state" data-name="Pennsylvania"   d="M 782,200 L 898,202 L 902,252 L 858,255 L 840,252 L 834,242 L 820,238 L 815,218 L 808,208 Z"/>
    <path class="state" data-name="Maryland"       d="M 840,252 L 858,252 L 902,252 L 905,262 L 885,272 L 870,275 L 855,272 L 850,262 L 840,258 Z"/>
    <path class="state" data-name="Delaware"       d="M 898,230 L 913,232 L 916,264 L 902,264 L 902,252 L 898,232 Z"/>
    <path class="state" data-name="New Jersey"     d="M 898,202 L 914,207 L 922,222 L 921,252 L 913,264 L 902,264 L 902,252 L 902,233 L 898,232 Z"/>
    <path class="state" data-name="New York"       d="M 810,132 L 853,122 L 873,118 L 896,120 L 900,158 L 900,202 L 898,202 L 782,200 L 782,180 L 800,162 L 810,148 Z"/>
    <path class="state" data-name="Connecticut"    d="M 896,178 L 921,180 L 921,205 L 914,207 L 898,202 L 900,180 Z"/>
    <path class="state" data-name="Rhode Island"   d="M 921,178 L 932,180 L 933,205 L 921,205 L 921,180 Z"/>
    <path class="state" data-name="Massachusetts"  d="M 873,152 L 933,155 L 936,168 L 933,180 L 921,178 L 900,178 L 896,178 L 896,165 L 882,160 L 875,155 Z"/>
    <path class="state" data-name="Vermont"        d="M 873,118 L 896,120 L 896,152 L 873,152 Z"/>
    <path class="state" data-name="New Hampshire"  d="M 896,110 L 921,112 L 923,155 L 896,155 L 896,120 Z"/>
    <path class="state" data-name="Maine"          d="M 921,65 L 956,68 L 958,155 L 943,168 L 923,168 L 923,155 L 921,112 Z"/>
    <!-- Alaska (repositioned) -->
    <path class="state" data-name="Alaska"         d="M 68,452 L 122,438 L 168,440 L 185,455 L 195,472 L 182,498 L 157,512 L 130,518 L 108,515 L 83,502 L 68,482 Z M 68,445 L 78,435 L 93,440 L 93,452 L 78,452 Z M 112,430 L 124,425 L 132,432 L 128,440 L 117,438 Z"/>
    <!-- Hawaii (repositioned) -->
    <path class="state" data-name="Hawaii"         d="M 216,518 L 233,513 L 244,520 L 242,530 L 230,534 L 217,528 Z M 252,512 L 264,508 L 275,515 L 273,526 L 261,530 L 251,522 Z M 280,508 L 293,504 L 305,512 L 303,523 L 291,526 L 280,518 Z M 312,508 L 325,507 L 334,514 L 332,524 L 320,526 L 310,520 Z"/>
  </g>

  <!-- Pittsburgh HQ Marker -->
  <g class="hq-marker">
    <circle cx="720" cy="232" r="14" fill="none" stroke="#479EB7" stroke-width="1.5" opacity="0.35" class="pulse-ring-1"/>
    <circle cx="720" cy="232" r="9"  fill="none" stroke="#479EB7" stroke-width="1.5" opacity="0.55" class="pulse-ring-2"/>
    <circle cx="720" cy="232" r="4"  fill="#479EB7" class="hq-dot"/>
    <rect x="728" y="220" width="86" height="20" rx="4" fill="rgba(13,31,60,0.85)"/>
    <text x="733" y="233" font-family="Plus Jakarta Sans, sans-serif" font-size="10" fill="white" font-weight="600">HQ · Pittsburgh</text>
  </g>
</svg>
